<svg width="167" height="40" viewBox="0 0 167 40" fill="none" xmlns="http://www.w3.org/2000/svg">
<g clip-path="url(#clip0_1_944)">
<rect x="0.296875" width="166" height="40" rx="20" fill="#9A97ED"/>
<path d="M26.8535 25H25.0898V15.1357H31.3789V16.6602H26.8535V19.5312H30.9893V21.001H26.8535V25ZM36.2939 18.7178C35.7881 18.7178 35.3711 18.8841 35.043 19.2168C34.7148 19.5495 34.5326 19.9893 34.4961 20.5361H38.0166C37.9984 19.9801 37.8343 19.5381 37.5244 19.21C37.2145 18.8818 36.8044 18.7178 36.2939 18.7178ZM38.0303 22.9424H39.6367C39.4772 23.626 39.1012 24.166 38.5088 24.5625C37.9209 24.9544 37.1895 25.1504 36.3145 25.1504C35.2161 25.1504 34.3525 24.8086 33.7236 24.125C33.0993 23.4368 32.7871 22.4912 32.7871 21.2881C32.7871 20.085 33.1016 19.1325 33.7305 18.4307C34.3594 17.7243 35.2161 17.3711 36.3008 17.3711C37.3672 17.3711 38.2012 17.7061 38.8027 18.376C39.4089 19.0413 39.7119 19.9642 39.7119 21.1445V21.6914H34.4893V21.7803C34.512 22.4046 34.6898 22.8991 35.0225 23.2637C35.3597 23.6237 35.8063 23.8037 36.3623 23.8037C37.2191 23.8037 37.7751 23.5166 38.0303 22.9424ZM43.9707 23.79C44.4811 23.79 44.9072 23.6442 45.249 23.3525C45.5908 23.0563 45.7617 22.6917 45.7617 22.2588V21.6641L44.0732 21.7734C43.1436 21.8327 42.6787 22.1699 42.6787 22.7852C42.6787 23.0951 42.7972 23.3411 43.0342 23.5234C43.2757 23.7012 43.5879 23.79 43.9707 23.79ZM43.4717 25.123C42.7425 25.123 42.1478 24.918 41.6875 24.5078C41.2272 24.0977 40.9971 23.5553 40.9971 22.8809C40.9971 22.2064 41.2409 21.6777 41.7285 21.2949C42.2207 20.9121 42.9225 20.6934 43.834 20.6387L45.7617 20.5225V19.8936C45.7617 19.5244 45.641 19.2419 45.3994 19.0459C45.1579 18.8499 44.8092 18.752 44.3535 18.752C43.9616 18.752 43.638 18.8203 43.3828 18.957C43.1276 19.0892 42.9613 19.2806 42.8838 19.5312H41.2842C41.3525 18.8704 41.6715 18.3464 42.2412 17.959C42.8154 17.5671 43.5469 17.3711 44.4355 17.3711C45.3926 17.3711 46.1309 17.5921 46.6504 18.0342C47.1745 18.4762 47.4365 19.096 47.4365 19.8936V25H45.8027V23.9746H45.6865C45.4769 24.3346 45.1761 24.6172 44.7842 24.8223C44.3968 25.0228 43.9593 25.123 43.4717 25.123ZM50.0205 15.6895H51.709V17.5693H53.3086V18.9229H51.709V22.5938C51.709 22.9629 51.791 23.234 51.9551 23.4072C52.1191 23.5758 52.3789 23.6602 52.7344 23.6602C52.8893 23.6602 53.0807 23.6488 53.3086 23.626V24.9521C53.026 25.0068 52.7298 25.0342 52.4199 25.0342C51.5632 25.0342 50.9479 24.877 50.5742 24.5625C50.2051 24.248 50.0205 23.7285 50.0205 23.0039V18.9229H48.8379V17.5693H50.0205V15.6895ZM61.5117 17.5215V25H59.8779V23.8105H59.7617C59.3835 24.7038 58.6383 25.1504 57.5264 25.1504C56.7106 25.1504 56.0749 24.9089 55.6191 24.4258C55.1634 23.9382 54.9355 23.2568 54.9355 22.3818V17.5215H56.6309V21.958C56.6309 22.5322 56.7516 22.9606 56.9932 23.2432C57.2347 23.5212 57.6084 23.6602 58.1143 23.6602C58.6611 23.6602 59.0804 23.5029 59.3721 23.1885C59.6683 22.874 59.8164 22.4365 59.8164 21.876V17.5215H61.5117ZM63.5898 25V17.5215H65.2236V18.6836H65.3398C65.4447 18.3099 65.6794 18.0023 66.0439 17.7607C66.4131 17.5192 66.8369 17.3984 67.3154 17.3984C67.6208 17.3984 67.8555 17.4235 68.0195 17.4736V19.0459C67.8464 18.9821 67.557 18.9502 67.1514 18.9502C66.5999 18.9502 66.151 19.1097 65.8047 19.4287C65.4583 19.7432 65.2852 20.1602 65.2852 20.6797V25H63.5898ZM72.3604 18.7178C71.8545 18.7178 71.4375 18.8841 71.1094 19.2168C70.7812 19.5495 70.599 19.9893 70.5625 20.5361H74.083C74.0648 19.9801 73.9007 19.5381 73.5908 19.21C73.2809 18.8818 72.8708 18.7178 72.3604 18.7178ZM74.0967 22.9424H75.7031C75.5436 23.626 75.1676 24.166 74.5752 24.5625C73.9873 24.9544 73.2559 25.1504 72.3809 25.1504C71.2826 25.1504 70.4189 24.8086 69.79 24.125C69.1657 23.4368 68.8535 22.4912 68.8535 21.2881C68.8535 20.085 69.168 19.1325 69.7969 18.4307C70.4258 17.7243 71.2826 17.3711 72.3672 17.3711C73.4336 17.3711 74.2676 17.7061 74.8691 18.376C75.4753 19.0413 75.7783 19.9642 75.7783 21.1445V21.6914H70.5557V21.7803C70.5785 22.4046 70.7562 22.8991 71.0889 23.2637C71.4261 23.6237 71.8727 23.8037 72.4287 23.8037C73.2855 23.8037 73.8415 23.5166 74.0967 22.9424ZM80.1875 25.123C79.2396 25.123 78.4899 24.7767 77.9385 24.084C77.387 23.3867 77.1113 22.4434 77.1113 21.2539C77.1113 20.0736 77.387 19.137 77.9385 18.4443C78.4945 17.7471 79.2441 17.3984 80.1875 17.3984C80.6979 17.3984 81.1536 17.5146 81.5547 17.7471C81.9557 17.9795 82.2565 18.3008 82.457 18.7109H82.5732V14.6299H84.2686V25H82.6279V23.8174H82.5117C82.2975 24.2275 81.9854 24.5488 81.5752 24.7812C81.1696 25.0091 80.707 25.123 80.1875 25.123ZM82.0879 19.4902C81.7507 19.0573 81.2926 18.8408 80.7139 18.8408C80.1351 18.8408 79.6794 19.0573 79.3467 19.4902C79.014 19.9186 78.8477 20.5088 78.8477 21.2607C78.8477 22.0173 79.0117 22.6097 79.3398 23.0381C79.6725 23.4665 80.1305 23.6807 80.7139 23.6807C81.2972 23.6807 81.7552 23.4665 82.0879 23.0381C82.4251 22.6051 82.5938 22.0127 82.5938 21.2607C82.5938 20.5133 82.4251 19.9232 82.0879 19.4902ZM90.3184 15.1357H94.2969C95.2812 15.1357 96.0788 15.4434 96.6895 16.0586C97.3047 16.6738 97.6123 17.4782 97.6123 18.4717C97.6123 19.4469 97.2956 20.2399 96.6621 20.8506C96.0332 21.4613 95.2197 21.7666 94.2217 21.7666H92.082V25H90.3184V15.1357ZM92.082 16.6123V20.3037H93.8252C94.4587 20.3037 94.9486 20.1442 95.2949 19.8252C95.6458 19.5062 95.8213 19.055 95.8213 18.4717C95.8213 17.8701 95.6481 17.4098 95.3018 17.0908C94.96 16.7718 94.4701 16.6123 93.832 16.6123H92.082ZM99.3828 25V17.5215H101.017V18.6836H101.133C101.238 18.3099 101.472 18.0023 101.837 17.7607C102.206 17.5192 102.63 17.3984 103.108 17.3984C103.414 17.3984 103.648 17.4235 103.812 17.4736V19.0459C103.639 18.9821 103.35 18.9502 102.944 18.9502C102.393 18.9502 101.944 19.1097 101.598 19.4287C101.251 19.7432 101.078 20.1602 101.078 20.6797V25H99.3828ZM108.242 25.1504C107.121 25.1504 106.242 24.8063 105.604 24.1182C104.965 23.4255 104.646 22.473 104.646 21.2607C104.646 20.0576 104.968 19.1097 105.61 18.417C106.253 17.7197 107.13 17.3711 108.242 17.3711C109.359 17.3711 110.236 17.7174 110.874 18.4102C111.517 19.1029 111.838 20.0531 111.838 21.2607C111.838 22.473 111.517 23.4255 110.874 24.1182C110.236 24.8063 109.359 25.1504 108.242 25.1504ZM106.868 23.0859C107.192 23.5143 107.65 23.7285 108.242 23.7285C108.835 23.7285 109.29 23.5143 109.609 23.0859C109.933 22.653 110.095 22.0446 110.095 21.2607C110.095 20.4814 109.933 19.8753 109.609 19.4424C109.286 19.0094 108.83 18.793 108.242 18.793C107.65 18.793 107.192 19.0094 106.868 19.4424C106.545 19.8753 106.383 20.4814 106.383 21.2607C106.383 22.0446 106.545 22.653 106.868 23.0859ZM116.254 25.123C115.306 25.123 114.556 24.7767 114.005 24.084C113.453 23.3867 113.178 22.4434 113.178 21.2539C113.178 20.0736 113.453 19.137 114.005 18.4443C114.561 17.7471 115.311 17.3984 116.254 17.3984C116.764 17.3984 117.22 17.5146 117.621 17.7471C118.022 17.9795 118.323 18.3008 118.523 18.7109H118.64V14.6299H120.335V25H118.694V23.8174H118.578C118.364 24.2275 118.052 24.5488 117.642 24.7812C117.236 25.0091 116.773 25.123 116.254 25.123ZM118.154 19.4902C117.817 19.0573 117.359 18.8408 116.78 18.8408C116.201 18.8408 115.746 19.0573 115.413 19.4902C115.08 19.9186 114.914 20.5088 114.914 21.2607C114.914 22.0173 115.078 22.6097 115.406 23.0381C115.739 23.4665 116.197 23.6807 116.78 23.6807C117.364 23.6807 117.822 23.4665 118.154 23.0381C118.492 22.6051 118.66 22.0127 118.66 21.2607C118.66 20.5133 118.492 19.9232 118.154 19.4902ZM128.982 17.5215V25H127.349V23.8105H127.232C126.854 24.7038 126.109 25.1504 124.997 25.1504C124.181 25.1504 123.546 24.9089 123.09 24.4258C122.634 23.9382 122.406 23.2568 122.406 22.3818V17.5215H124.102V21.958C124.102 22.5322 124.222 22.9606 124.464 23.2432C124.705 23.5212 125.079 23.6602 125.585 23.6602C126.132 23.6602 126.551 23.5029 126.843 23.1885C127.139 22.874 127.287 22.4365 127.287 21.876V17.5215H128.982ZM137.521 20.0371H135.907C135.825 19.6589 135.643 19.3581 135.36 19.1348C135.078 18.9069 134.711 18.793 134.26 18.793C133.676 18.793 133.221 19.0072 132.893 19.4355C132.569 19.8639 132.407 20.4655 132.407 21.2402C132.407 22.0241 132.571 22.6348 132.899 23.0723C133.228 23.5098 133.681 23.7285 134.26 23.7285C134.702 23.7285 135.064 23.626 135.347 23.4209C135.634 23.2158 135.821 22.9196 135.907 22.5322H137.521C137.425 23.3298 137.09 23.9655 136.516 24.4395C135.946 24.9134 135.196 25.1504 134.267 25.1504C133.141 25.1504 132.264 24.8063 131.635 24.1182C131.006 23.43 130.691 22.4707 130.691 21.2402C130.691 20.0234 131.006 19.0755 131.635 18.3965C132.264 17.7129 133.139 17.3711 134.26 17.3711C135.199 17.3711 135.953 17.6149 136.522 18.1025C137.097 18.5856 137.429 19.2305 137.521 20.0371ZM139.776 15.6895H141.465V17.5693H143.064V18.9229H141.465V22.5938C141.465 22.9629 141.547 23.234 141.711 23.4072C141.875 23.5758 142.135 23.6602 142.49 23.6602C142.645 23.6602 142.837 23.6488 143.064 23.626V24.9521C142.782 25.0068 142.486 25.0342 142.176 25.0342C141.319 25.0342 140.704 24.877 140.33 24.5625C139.961 24.248 139.776 23.7285 139.776 23.0039V18.9229H138.594V17.5693H139.776V15.6895Z" fill="white"/>
</g>
<defs>
<clipPath id="clip0_1_944">
<rect width="166" height="40" fill="white" transform="translate(0.296875)"/>
</clipPath>
</defs>
</svg>
