<svg width="159" height="48" viewBox="0 0 159 48" fill="none" xmlns="http://www.w3.org/2000/svg">
<path d="M65.6162 30H70.248C74.0449 30 76.2773 27.6445 76.2773 23.6279V23.6104C76.2773 19.6025 74.0273 17.3174 70.248 17.3174H65.6162V30ZM67.8838 28.084V19.2334H70.0107C72.5332 19.2334 73.9658 20.7891 73.9658 23.6191V23.6367C73.9658 26.5283 72.5596 28.084 70.0107 28.084H67.8838ZM81.9814 30.1846C84.7148 30.1846 86.4902 28.3652 86.4902 25.3418V25.3242C86.4902 22.3184 84.6885 20.4902 81.9727 20.4902C79.2656 20.4902 77.4727 22.3359 77.4727 25.3242V25.3418C77.4727 28.3564 79.2393 30.1846 81.9814 30.1846ZM81.9902 28.418C80.5928 28.418 79.7051 27.3018 79.7051 25.3418V25.3242C79.7051 23.3906 80.6104 22.2656 81.9727 22.2656C83.3613 22.2656 84.2578 23.3818 84.2578 25.3242V25.3418C84.2578 27.293 83.3701 28.418 81.9902 28.418ZM89.6631 30H91.9482L93.7764 23.1885H93.8203L95.6572 30H97.96L100.482 20.6836H98.3203L96.7471 27.8379H96.6943L94.875 20.6836H92.7744L90.9551 27.8379H90.9111L89.3379 20.6836H87.1406L89.6631 30ZM101.572 30H103.761V24.5947C103.761 23.25 104.561 22.3359 105.817 22.3359C107.065 22.3359 107.681 23.083 107.681 24.4102V30H109.869V23.9707C109.869 21.8086 108.7 20.4902 106.652 20.4902C105.237 20.4902 104.288 21.1406 103.805 22.1426H103.761V20.6836H101.572V30ZM111.688 30H113.877V17.3174H111.688V30ZM119.862 30.1846C122.596 30.1846 124.371 28.3652 124.371 25.3418V25.3242C124.371 22.3184 122.569 20.4902 119.854 20.4902C117.146 20.4902 115.354 22.3359 115.354 25.3242V25.3418C115.354 28.3564 117.12 30.1846 119.862 30.1846ZM119.871 28.418C118.474 28.418 117.586 27.3018 117.586 25.3418V25.3242C117.586 23.3906 118.491 22.2656 119.854 22.2656C121.242 22.2656 122.139 23.3818 122.139 25.3242V25.3418C122.139 27.293 121.251 28.418 119.871 28.418ZM128.528 30.1582C129.759 30.1582 130.796 29.543 131.332 28.5674H131.385V30H133.573V23.5928C133.573 21.7207 132.07 20.4902 129.741 20.4902C127.377 20.4902 125.944 21.7295 125.812 23.3818L125.804 23.4873H127.834L127.852 23.4082C127.992 22.7227 128.625 22.2393 129.662 22.2393C130.77 22.2393 131.385 22.8105 131.385 23.751V24.3926L128.95 24.542C126.691 24.6826 125.408 25.6758 125.408 27.3281V27.3457C125.408 29.0068 126.665 30.1582 128.528 30.1582ZM127.588 27.2578V27.249C127.588 26.5107 128.177 26.0449 129.258 25.9746L131.385 25.8428V26.5459C131.385 27.6533 130.436 28.4883 129.179 28.4883C128.221 28.4883 127.588 28.0225 127.588 27.2578ZM138.803 30.1846C140.147 30.1846 141.176 29.5166 141.703 28.418H141.756V30H143.944V17.3174H141.756V22.2832H141.703C141.176 21.167 140.112 20.4902 138.794 20.4902C136.456 20.4902 134.953 22.3271 134.953 25.333V25.3418C134.953 28.3389 136.447 30.1846 138.803 30.1846ZM139.462 28.3389C138.056 28.3389 137.186 27.1963 137.186 25.3418V25.333C137.186 23.4785 138.064 22.3359 139.462 22.3359C140.807 22.3359 141.756 23.5137 141.756 25.333V25.3418C141.756 27.1699 140.815 28.3389 139.462 28.3389Z" fill="white"/>
<circle cx="24.5" cy="24" r="24" fill="#5468E7"/>
<path d="M24.5 14V27" stroke="white" stroke-width="2" stroke-linecap="round" stroke-linejoin="round"/>
<path fill-rule="evenodd" clip-rule="evenodd" d="M19.5 27H29.5L24.5 34L19.5 27Z" stroke="white" stroke-width="2" stroke-linecap="round" stroke-linejoin="round"/>
</svg>
