<svg width="32" height="32" viewBox="0 0 32 32" fill="none" xmlns="http://www.w3.org/2000/svg">
<circle cx="16" cy="16" r="16" fill="url(#paint0_linear_1_1607)"/>
<path d="M12.6299 21H19.4795V19.5371H15.0156V19.3936L16.9912 17.4795C18.7891 15.75 19.3291 14.8613 19.3291 13.7402V13.7197C19.3291 12.0586 17.9482 10.8896 16.0273 10.8896C13.9697 10.8896 12.5342 12.1748 12.5342 14.0137L12.541 14.0342L14.1816 14.041L14.1885 14.0137C14.1885 12.9951 14.8926 12.3047 15.9385 12.3047C16.9639 12.3047 17.5859 12.9609 17.5859 13.8701V13.8906C17.5859 14.6494 17.21 15.1484 15.8701 16.502L12.6299 19.8105V21Z" fill="white"/>
<defs>
<linearGradient id="paint0_linear_1_1607" x1="0" y1="0" x2="0" y2="32" gradientUnits="userSpaceOnUse">
<stop stop-color="#3A8FFF"/>
<stop offset="1" stop-color="#0837AE"/>
</linearGradient>
</defs>
</svg>
