<svg width="502" height="502" viewBox="0 0 502 502" fill="none" xmlns="http://www.w3.org/2000/svg">
<g filter="url(#filter0_d_1_588)">
<circle cx="251" cy="228" r="201" fill="#232340"/>
</g>
<g clip-path="url(#clip0_1_588)">
<path d="M139.879 282H238.902V261.395H173.18V260.32L204.234 230.828C229.039 207 236.754 195.77 236.754 179.168V178.973C236.754 155.73 217.027 138.641 188.805 138.641C160.191 138.641 138.512 157.098 138.512 182.879V183.562H162.145V182.879C162.438 169.305 173.375 158.855 189 158.855C202.574 158.855 212.047 167.84 212.145 180.438V180.633C212.145 191.082 208.141 198.211 189.684 216.277L139.879 264.812V282ZM310.484 284.441C342.711 284.441 365.27 267.645 365.27 243.621V243.426C365.27 225.555 352.184 211.688 333.531 207.879V207.293C349.547 202.996 360.094 191.277 360.094 176.238V176.043C360.094 154.461 339.586 138.641 310.484 138.641C281.48 138.641 260.875 154.461 260.875 176.043V176.238C260.875 191.277 271.422 202.996 287.438 207.293V207.879C268.785 211.688 255.797 225.555 255.797 243.426V243.621C255.797 267.645 278.258 284.441 310.484 284.441ZM310.484 199.285C295.836 199.285 285.777 190.789 285.777 178.582V178.387C285.777 166.18 295.934 157.684 310.484 157.684C325.035 157.684 335.191 166.18 335.191 178.387V178.582C335.191 190.789 325.133 199.285 310.484 199.285ZM310.484 265.203C293.688 265.203 281.676 255.535 281.676 242.059V241.863C281.676 228.289 293.492 218.523 310.484 218.523C327.477 218.523 339.293 228.289 339.293 241.863V242.059C339.293 255.535 327.379 265.203 310.484 265.203Z" fill="white"/>
<path d="M182.789 322H193.723V319.082H186.328V305.09H182.789V322ZM200.905 322.258C204.702 322.258 207.128 319.82 207.128 315.719V315.695C207.128 311.629 204.655 309.18 200.894 309.18C197.144 309.18 194.683 311.652 194.683 315.695V315.719C194.683 319.809 197.085 322.258 200.905 322.258ZM200.917 319.574C199.23 319.574 198.163 318.18 198.163 315.719V315.695C198.163 313.27 199.241 311.863 200.894 311.863C202.558 311.863 203.648 313.27 203.648 315.695V315.719C203.648 318.168 202.581 319.574 200.917 319.574ZM208.698 322H212.12V314.969C212.12 313.141 213.104 312.133 214.791 312.133C215.284 312.133 215.752 312.203 216.034 312.32V309.309C215.776 309.238 215.424 309.18 215.049 309.18C213.584 309.18 212.565 310.082 212.19 311.629H212.12V309.438H208.698V322ZM222.537 322.258C226.123 322.258 227.857 320.137 228.244 318.285L228.279 318.156H225.138L225.115 318.227C224.869 318.93 224.013 319.703 222.607 319.703C220.861 319.703 219.771 318.531 219.736 316.527H228.384V315.473C228.384 311.676 226.076 309.18 222.396 309.18C218.716 309.18 216.361 311.734 216.361 315.73V315.742C216.361 319.762 218.693 322.258 222.537 322.258ZM222.455 311.734C223.873 311.734 224.892 312.637 225.103 314.371H219.771C219.994 312.672 221.048 311.734 222.455 311.734ZM229.954 322H233.376V314.418C233.376 313 234.255 312.016 235.555 312.016C236.821 312.016 237.583 312.812 237.583 314.16V322H240.876V314.359C240.876 312.965 241.731 312.016 243.032 312.016C244.356 312.016 245.083 312.812 245.083 314.266V322H248.505V313.41C248.505 310.879 246.852 309.18 244.391 309.18C242.552 309.18 241.052 310.188 240.489 311.77H240.419C239.997 310.117 238.72 309.18 236.962 309.18C235.274 309.18 233.962 310.117 233.446 311.547H233.376V309.438H229.954V322ZM255.323 322H258.863V305.09H255.323V322ZM261.182 326.102H264.604V319.855H264.674C265.354 321.344 266.772 322.258 268.565 322.258C271.705 322.258 273.651 319.797 273.651 315.719V315.707C273.651 311.617 271.705 309.18 268.518 309.18C266.737 309.18 265.366 310.105 264.686 311.629H264.604V309.438H261.182V326.102ZM267.393 319.422C265.729 319.422 264.592 317.992 264.592 315.73V315.719C264.592 313.445 265.729 312.016 267.393 312.016C269.092 312.016 270.17 313.41 270.17 315.707V315.719C270.17 318.004 269.092 319.422 267.393 319.422ZM280.4 322.258C283.634 322.258 285.896 320.641 285.896 318.18V318.168C285.896 316.316 284.818 315.285 282.193 314.734L280.06 314.277C278.795 314.008 278.361 313.586 278.361 312.941V312.93C278.361 312.121 279.099 311.594 280.283 311.594C281.548 311.594 282.287 312.273 282.404 313.176L282.416 313.27H285.568V313.152C285.486 310.949 283.623 309.18 280.283 309.18C277.084 309.18 275.021 310.727 275.021 313.117V313.129C275.021 315.004 276.252 316.223 278.689 316.738L280.822 317.184C282.052 317.453 282.474 317.84 282.474 318.508V318.52C282.474 319.328 281.689 319.832 280.4 319.832C279.029 319.832 278.291 319.258 278.068 318.273L278.045 318.168H274.705L274.716 318.273C274.986 320.652 276.92 322.258 280.4 322.258ZM291.661 322.258C293.559 322.258 294.848 321.367 295.493 319.926H295.563V322H298.985V309.438H295.563V316.656C295.563 318.297 294.591 319.422 293.055 319.422C291.52 319.422 290.747 318.473 290.747 316.832V309.438H287.325V317.547C287.325 320.488 288.895 322.258 291.661 322.258ZM301.012 322H304.434V314.418C304.434 313 305.312 312.016 306.613 312.016C307.879 312.016 308.641 312.812 308.641 314.16V322H311.934V314.359C311.934 312.965 312.789 312.016 314.09 312.016C315.414 312.016 316.141 312.812 316.141 314.266V322H319.562V313.41C319.562 310.879 317.91 309.18 315.449 309.18C313.609 309.18 312.109 310.188 311.547 311.77H311.477C311.055 310.117 309.777 309.18 308.02 309.18C306.332 309.18 305.02 310.117 304.504 311.547H304.434V309.438H301.012V322Z" fill="white"/>
</g>
<defs>
<filter id="filter0_d_1_588" x="0" y="0" width="502" height="502" filterUnits="userSpaceOnUse" color-interpolation-filters="sRGB">
<feFlood flood-opacity="0" result="BackgroundImageFix"/>
<feColorMatrix in="SourceAlpha" type="matrix" values="0 0 0 0 0 0 0 0 0 0 0 0 0 0 0 0 0 0 127 0" result="hardAlpha"/>
<feOffset dy="23"/>
<feGaussianBlur stdDeviation="25"/>
<feComposite in2="hardAlpha" operator="out"/>
<feColorMatrix type="matrix" values="0 0 0 0 0 0 0 0 0 0 0 0 0 0 0 0 0 0 0.25 0"/>
<feBlend mode="normal" in2="BackgroundImageFix" result="effect1_dropShadow_1_588"/>
<feBlend mode="normal" in="SourceGraphic" in2="effect1_dropShadow_1_588" result="shape"/>
</filter>
<clipPath id="clip0_1_588">
<rect width="245" height="238" fill="white" transform="translate(129 91)"/>
</clipPath>
</defs>
</svg>
